<?xml version="1.0" encoding="utf-8"?>
<svg version="1.1" xmlns:xlink="http://www.w3.org/1999/xlink" width="150px" height="88px" xmlns="http://www.w3.org/2000/svg">
  <g transform="matrix(1 0 0 1 -853 -135 )">
    <path d="M 853 135  L 1003 135  L 1003 223  L 853 223  L 853 135  " fill-rule="nonzero" fill="#cccccc" stroke="none" />
    <path d="M 859 141  L 997 141  L 997 217  L 859 217  L 859 141  " fill-rule="nonzero" fill="#ffffff" stroke="none" />
    <path d="M 937.6 161.4  C 933.904 161.4  931 158.496  931 154.8  C 931 151.104  933.904 148.2  937.6 148.2  C 941.296 148.2  944.2 151.104  944.2 154.8  C 944.2 158.496  941.296 161.4  937.6 161.4  " fill-rule="nonzero" fill="#cccccc" stroke="none" />
    <path d="M 861 215  L 861 175.4  L 894.5 157.4  L 941.4 189.656  L 968.2 168.2  L 995 189.656  L 995 215  L 861 215  " fill-rule="nonzero" fill="#169bd5" stroke="none" />
  </g>
</svg>