<?xml version="1.0" encoding="utf-8"?>
<svg version="1.1" xmlns:xlink="http://www.w3.org/1999/xlink" width="69px" height="51px" xmlns="http://www.w3.org/2000/svg">
  <g transform="matrix(1 0 0 1 -134 -1890 )">
    <path d="M 27.18671875 23.1859975961538  C 29.2111979166667 21.4594350961538  31.6489583333333 20.5961538461538  34.5 20.5961538461538  C 37.3510416666667 20.5961538461538  39.7888020833333 21.4594350961538  41.81328125 23.1859975961538  C 43.8377604166667 24.9125600961538  44.85 26.9915865384615  44.85 29.4230769230769  C 44.85 31.8545673076923  43.8377604166667 33.93359375  41.81328125 35.66015625  C 39.7888020833333 37.38671875  37.3510416666667 38.25  34.5 38.25  C 31.6489583333333 38.25  29.2111979166667 37.38671875  27.18671875 35.66015625  C 25.1622395833333 33.93359375  24.15 31.8545673076923  24.15 29.4230769230769  C 24.15 26.9915865384615  25.1622395833333 24.9125600961538  27.18671875 23.1859975961538  Z M 51.75 7.84615384615385  L 59.8 7.84615384615385  C 62.3395833333333 7.84615384615385  64.5078125 8.61237980769231  66.3046875 10.1448317307692  C 68.1015625 11.6772836538462  69 13.5264423076923  69 15.6923076923077  L 69 43.1538461538462  C 69 45.3197115384615  68.1015625 47.1688701923077  66.3046875 48.7013221153846  C 64.5078125 50.2337740384615  62.3395833333333 51  59.8 51  L 9.2 51  C 6.66041666666667 51  4.4921875 50.2337740384615  2.6953125 48.7013221153846  C 0.8984375 47.1688701923077  0 45.3197115384615  0 43.1538461538462  L 0 15.6923076923077  C 0 13.5264423076923  0.8984375 11.6772836538462  2.6953125 10.1448317307692  C 4.4921875 8.61237980769231  6.66041666666667 7.84615384615385  9.2 7.84615384615385  L 17.25 7.84615384615385  L 19.0828125 3.67788461538461  C 19.5380208333333 2.67668269230769  20.3705729166667 1.81340144230769  21.58046875 1.08804086538461  C 22.7903645833333 0.362680288461544  24.0302083333333 0  25.3 0  L 43.7 0  C 44.9697916666667 0  46.2096354166667 0.362680288461544  47.41953125 1.08804086538461  C 48.6294270833333 1.81340144230769  49.4619791666667 2.67668269230769  49.9171875 3.67788461538461  L 51.75 7.84615384615385  Z M 23.12578125 39.1234975961538  C 26.2763020833333 41.8103966346154  30.0677083333333 43.1538461538462  34.5 43.1538461538462  C 38.9322916666667 43.1538461538462  42.7236979166667 41.8103966346154  45.87421875 39.1234975961538  C 49.0247395833333 36.4365985576923  50.6 33.203125  50.6 29.4230769230769  C 50.6 25.6430288461538  49.0247395833333 22.4095552884615  45.87421875 19.72265625  C 42.7236979166667 17.0357572115385  38.9322916666667 15.6923076923077  34.5 15.6923076923077  C 30.0677083333333 15.6923076923077  26.2763020833333 17.0357572115385  23.12578125 19.72265625  C 19.9752604166667 22.4095552884615  18.4 25.6430288461538  18.4 29.4230769230769  C 18.4 33.203125  19.9752604166667 36.4365985576923  23.12578125 39.1234975961538  Z " fill-rule="nonzero" fill="#d7d7d7" stroke="none" transform="matrix(1 0 0 1 134 1890 )" />
  </g>
</svg>