<?xml version="1.0" encoding="utf-8"?>
<svg version="1.1" xmlns:xlink="http://www.w3.org/1999/xlink" width="89px" height="64px" xmlns="http://www.w3.org/2000/svg">
  <g transform="matrix(1 0 0 1 -125 -2511 )">
    <path d="M 87.2301136363636 24.5454545454545  C 88.4100378787879 25.3939393939394  89 26.4242424242424  89 27.6363636363636  L 89 36.3636363636364  C 89 37.5757575757576  88.4100378787879 38.6060606060606  87.2301136363636 39.4545454545455  C 86.0501893939394 40.3030303030303  84.6174242424242 40.7272727272727  82.9318181818182 40  L 56 40  L 56 59.6363636363636  C 56.6363636363636 60.8484848484849  56.0464015151515 61.8787878787879  54.8664772727273 62.7272727272727  C 53.686553030303 63.5757575757576  52.2537878787879 64  50.5681818181818 64  L 38.4318181818182 64  C 36.7462121212121 64  35.313446969697 63.5757575757576  34.1335227272727 62.7272727272727  C 32.9535984848485 61.8787878787879  32.3636363636364 60.8484848484849  33 59.6363636363636  L 33 40  L 6.06818181818182 40  C 4.38257575757576 40.7272727272727  2.94981060606061 40.3030303030303  1.76988636363636 39.4545454545455  C 0.589962121212121 38.6060606060606  0 37.5757575757576  0 36.3636363636364  L 0 27.6363636363636  C 0 26.4242424242424  0.589962121212121 25.3939393939394  1.76988636363636 24.5454545454545  C 2.94981060606061 23.6969696969697  4.38257575757576 23.2727272727273  6.06818181818182 24  L 33 24  L 33 4.36363636363637  C 32.3636363636364 3.15151515151515  32.9535984848485 2.12121212121212  34.1335227272727 1.27272727272727  C 35.313446969697 0.424242424242422  36.7462121212121 0  38.4318181818182 0  L 50.5681818181818 0  C 52.2537878787879 0  53.686553030303 0.424242424242422  54.8664772727273 1.27272727272727  C 56.0464015151515 2.12121212121212  56.6363636363636 3.15151515151515  56 4.36363636363637  L 56 24  L 82.9318181818182 24  C 84.6174242424242 23.2727272727273  86.0501893939394 23.6969696969697  87.2301136363636 24.5454545454545  Z " fill-rule="nonzero" fill="#d7d7d7" stroke="none" transform="matrix(1 0 0 1 125 2511 )" />
  </g>
</svg>