<?xml version="1.0" encoding="utf-8"?>
<svg version="1.1" xmlns:xlink="http://www.w3.org/1999/xlink" width="16px" height="16px" xmlns="http://www.w3.org/2000/svg">
  <g transform="matrix(1 0 0 1 -22 -76 )">
    <path d="M 15.7840344983869 15.7390621798942  C 15.9905681724093 15.5325285058717  15.9905681724093 15.1979635627823  15.7840344983869 14.9914468034585  L 12.1682753015873 11.3757214030198  C 13.1999970432314 10.1731504514131  13.8241790414247 8.61126701458252  13.8241790414247 6.90635843592722  C 13.8241790414247 3.11675799406375  10.7408973834043 0.0334763360433641  6.95129694154083 0.0334763360433641  C 3.16169649967739 0.0334763360433641  0.078397943476574 3.11675799406375  0.078397943476574 6.90635843592722  C 0.078397943476574 10.6958912685508  3.16169649967739 13.7792405358111  6.95129694154083 13.7792405358111  C 8.65622243489484 13.7792405358111  10.2181058552071 13.1550585210995  11.4206599086334 12.1233536941541  L 15.0364360201316 15.7390621798942  C 15.1396690525229 15.8423628215253  15.2749859646406 15.8939708886308  15.4101676417602 15.8939708886308  C 15.5455014520583 15.8939708886308  15.6807338567557 15.8423628215253  15.7840344983869 15.7390621798942  Z M 12.7668138567557 6.90634153774681  C 12.766813873274 10.1176713464963  10.1626605796877 12.7218077419022  6.95129694154083 12.7218077419022  C 3.73991640521356 12.7218077419022  1.13578002632597 10.1176713630146  1.13578002632597 6.90634153774681  C 1.13578002632597 3.69497789959993  3.73993331991223 1.09082462253194  6.95129694154083 1.09082462253194  C 10.162643664989 1.09082462253194  12.7668138567557 3.69497791611821  12.7668138567557 6.90634153774681  Z " fill-rule="nonzero" fill="#999999" stroke="none" transform="matrix(1 0 0 1 22 76 )" />
  </g>
</svg>