<?xml version="1.0" encoding="utf-8"?>
<svg version="1.1" xmlns:xlink="http://www.w3.org/1999/xlink" width="345px" height="149px" xmlns="http://www.w3.org/2000/svg">
  <g transform="matrix(1 0 0 1 -16 -222 )">
    <path d="M 16 222  L 361 222  L 361 371  L 16 371  L 16 222  " fill-rule="nonzero" fill="#cccccc" stroke="none" />
    <path d="M 26 232  L 351 232  L 351 361  L 26 361  L 26 232  " fill-rule="nonzero" fill="#ffffff" stroke="none" />
    <path d="M 206.575 266.7  C 200.317 266.7  195.4 261.783  195.4 255.525  C 195.4 249.267  200.317 244.35  206.575 244.35  C 212.833 244.35  217.75 249.267  217.75 255.525  C 217.75 261.783  212.833 266.7  206.575 266.7  " fill-rule="nonzero" fill="#cccccc" stroke="none" />
    <path d="M 30 358  L 30 290.9  L 109.5 260.4  L 220.8 326.386086956522  L 284.4 278.7  L 348 326.386086956522  L 348 358  L 30 358  " fill-rule="nonzero" fill="#169bd5" stroke="none" />
  </g>
</svg>