<?xml version="1.0" encoding="utf-8"?>
<svg version="1.1" xmlns:xlink="http://www.w3.org/1999/xlink" width="337px" height="50px" xmlns="http://www.w3.org/2000/svg">
  <g transform="matrix(1 0 0 1 -2307 -1119 )">
    <path d="M 2307 1154.02603644576  C 2307 1154.02603644576  2307 1124  2307 1124  C 2307 1121.23857625085  2309.23857625085 1119  2312 1119  C 2312 1119  2639 1119  2639 1119  C 2641.76142374915 1119  2644 1121.23857625085  2644 1124  C 2644 1124  2644 1154.02603644576  2644 1154.02603644576  C 2644 1156.78746019491  2641.76142374915 1159.02603644576  2639 1159.02603644576  C 2639 1159.02603644576  2382.72546583851 1159.02603644576  2382.72546583851 1159.02603644576  C 2382.72546583851 1159.02603644576  2372.55103519669 1168.64272815654  2372.55103519669 1168.64272815654  C 2372.55103519669 1168.64272815654  2362.72546583851 1159.02603644576  2362.72546583851 1159.02603644576  C 2362.72546583851 1159.02603644576  2312 1159.02603644576  2312 1159.02603644576  C 2309.23857625085 1159.02603644576  2307 1156.78746019491  2307 1154.02603644576  Z " fill-rule="nonzero" fill="#000000" stroke="none" fill-opacity="0.8" />
  </g>
</svg>