<?xml version="1.0" encoding="utf-8"?>
<svg version="1.1" xmlns:xlink="http://www.w3.org/1999/xlink" width="12px" height="12px" viewBox="114 1548  12 12" xmlns="http://www.w3.org/2000/svg">
  <path d="M 120 1548  C 123.36 1548  126 1550.64  126 1554  C 126 1557.36  123.36 1560  120 1560  C 116.64 1560  114 1557.36  114 1554  C 114 1550.64  116.64 1548  120 1548  Z " fill-rule="nonzero" fill="#ffffff" stroke="none" />
  <path d="M 120 1548.5  C 123.08 1548.5  125.5 1550.92  125.5 1554  C 125.5 1557.08  123.08 1559.5  120 1559.5  C 116.92 1559.5  114.5 1557.08  114.5 1554  C 114.5 1550.92  116.92 1548.5  120 1548.5  Z " stroke-width="1" stroke="#797979" fill="none" />
  <path d="M 120 1557  C 118.32 1557  117 1555.68  117 1554  C 117 1552.32  118.32 1551  120 1551  C 121.68 1551  123 1552.32  123 1554  C 123 1555.68  121.68 1557  120 1557  " fill-rule="nonzero" fill="#797979" stroke="none" />
</svg>