<?xml version="1.0" encoding="utf-8"?>
<svg version="1.1" xmlns:xlink="http://www.w3.org/1999/xlink" width="12px" height="12px" viewBox="190 1969  12 12" xmlns="http://www.w3.org/2000/svg">
  <path d="M 196 1969  C 199.36 1969  202 1971.64  202 1975  C 202 1978.36  199.36 1981  196 1981  C 192.64 1981  190 1978.36  190 1975  C 190 1971.64  192.64 1969  196 1969  Z " fill-rule="nonzero" fill="#ffffff" stroke="none" />
  <path d="M 196 1969.5  C 199.08 1969.5  201.5 1971.92  201.5 1975  C 201.5 1978.08  199.08 1980.5  196 1980.5  C 192.92 1980.5  190.5 1978.08  190.5 1975  C 190.5 1971.92  192.92 1969.5  196 1969.5  Z " stroke-width="1" stroke="#797979" fill="none" />
  <path d="M 196 1978  C 194.32 1978  193 1976.68  193 1975  C 193 1973.32  194.32 1972  196 1972  C 197.68 1972  199 1973.32  199 1975  C 199 1976.68  197.68 1978  196 1978  " fill-rule="nonzero" fill="#797979" stroke="none" />
</svg>