<?xml version="1.0" encoding="utf-8"?>
<svg version="1.1" xmlns:xlink="http://www.w3.org/1999/xlink" width="12px" height="12px" viewBox="114 1969  12 12" xmlns="http://www.w3.org/2000/svg">
  <path d="M 120 1969  C 123.36 1969  126 1971.64  126 1975  C 126 1978.36  123.36 1981  120 1981  C 116.64 1981  114 1978.36  114 1975  C 114 1971.64  116.64 1969  120 1969  Z " fill-rule="nonzero" fill="#ffffff" stroke="none" />
  <path d="M 120 1969.5  C 123.08 1969.5  125.5 1971.92  125.5 1975  C 125.5 1978.08  123.08 1980.5  120 1980.5  C 116.92 1980.5  114.5 1978.08  114.5 1975  C 114.5 1971.92  116.92 1969.5  120 1969.5  Z " stroke-width="1" stroke="#797979" fill="none" />
  <path d="M 120 1978  C 118.32 1978  117 1976.68  117 1975  C 117 1973.32  118.32 1972  120 1972  C 121.68 1972  123 1973.32  123 1975  C 123 1976.68  121.68 1978  120 1978  " fill-rule="nonzero" fill="#797979" stroke="none" />
</svg>